<?xml version="1.0" encoding="UTF-8" standalone="no"?>
<svg
   viewBox="0 0 576 512"
   version="1.1"
   id="svg321"
   sodipodi:docname="door-open-solid-white.svg"
   inkscape:version="1.1.2 (b8e25be833, 2022-02-05)"
   xmlns:inkscape="http://www.inkscape.org/namespaces/inkscape"
   xmlns:sodipodi="http://sodipodi.sourceforge.net/DTD/sodipodi-0.dtd"
   xmlns="http://www.w3.org/2000/svg"
   xmlns:svg="http://www.w3.org/2000/svg">
  <defs
     id="defs325" />
  <sodipodi:namedview
     id="namedview323"
     pagecolor="#505050"
     bordercolor="#ffffff"
     borderopacity="1"
     inkscape:pageshadow="0"
     inkscape:pageopacity="0"
     inkscape:pagecheckerboard="1"
     showgrid="false"
     inkscape:zoom="1.6074219"
     inkscape:cx="287.72783"
     inkscape:cy="256.31106"
     inkscape:window-width="1920"
     inkscape:window-height="1009"
     inkscape:window-x="-8"
     inkscape:window-y="-8"
     inkscape:window-maximized="1"
     inkscape:current-layer="svg321" />
  <!--! Font Awesome Pro 6.1.1 by @fontawesome - https://fontawesome.com License - https://fontawesome.com/license (Commercial License) Copyright 2022 Fonticons, Inc. -->
  <path
     d="M560 448H512V113.5c0-27.25-21.5-49.5-48-49.5L352 64.01V128h96V512h112c8.875 0 16-7.125 16-15.1v-31.1C576 455.1 568.9 448 560 448zM280.3 1.007l-192 49.75C73.1 54.51 64 67.76 64 82.88V448H16c-8.875 0-16 7.125-16 15.1v31.1C0 504.9 7.125 512 16 512H320V33.13C320 11.63 300.5-4.243 280.3 1.007zM232 288c-13.25 0-24-14.37-24-31.1c0-17.62 10.75-31.1 24-31.1S256 238.4 256 256C256 273.6 245.3 288 232 288z"
     id="path319" />
  <path
     style="fill:#ffffff;stroke-width:0.622114"
     d="M 13.686513,511.41546 C 7.6460954,510.37457 3.0828996,506.17723 1.2380962,499.96511 c -1.18532922,-3.99144 -1.35121212,-37.1073 -0.2050396,-40.93288 1.0226342,-3.41325 4.5855263,-7.29824 8.2640621,-9.01117 3.1440753,-1.46405 3.1541693,-1.46456 29.1184343,-1.47063 l 25.973268,-0.006 0.0092,-184.92345 C 64.408107,60.319067 64.122619,75.110114 68.192589,67.047538 70.800163,61.881975 76.646979,56.123795 81.808032,53.63851 84.710549,52.240812 107.62279,46.05574 162.99394,31.722676 205.42213,20.739955 249.93256,9.2153679 261.90602,6.1124837 280.24523,1.3599328 284.41186,0.47615216 288.34587,0.50435838 302.39306,0.60507463 314.84464,10.553635 318.50309,24.599363 c 0.84744,3.253598 0.95256,30.348998 0.95256,245.528917 V 512 L 167.81531,511.9221 C 84.413123,511.8793 15.055164,511.6513 13.686513,511.41546 Z M 240.13609,286.26069 c 7.0008,-3.33324 13.26982,-12.05814 15.17165,-21.11513 0.9833,-4.68273 0.85874,-14.77721 -0.23412,-18.97298 -2.24744,-8.62846 -7.41307,-15.3401 -14.27967,-18.55337 -3.34259,-1.56419 -4.74515,-1.86087 -8.79717,-1.86087 -4.1267,0 -5.38075,0.27577 -8.71234,1.9159 -9.50714,4.68036 -15.3618,15.69361 -15.38872,28.94787 -0.0236,11.65018 4.42776,21.79859 11.99956,27.35682 4.09717,3.00759 6.99253,3.96426 12.15332,4.01563 3.56135,0.0355 5.0349,-0.28047 8.08749,-1.73387 z"
     id="path438" />
  <path
     style="fill:#ffffff;stroke-width:0.622114"
     d="M 448.23329,319.78811 V 127.53341 H 400.3305 352.4277 V 95.781904 64.030394 l 59.25638,0.209404 c 65.18179,0.230342 62.03527,0.04804 71.00171,4.113622 12.05918,5.467891 22.04885,16.438744 26.12994,28.696398 0.8544,2.566221 1.84829,6.485542 2.20863,8.709602 0.44724,2.76033 0.65668,57.79868 0.65989,173.41433 l 0.005,169.3706 h 26.05776 26.05776 l 3.27628,1.71155 c 3.95247,2.0648 7.03436,6.20135 8.01016,10.75137 0.39682,1.85031 0.6733,10.39372 0.66973,20.69528 -0.006,17.06437 -0.0457,17.62929 -1.45671,20.65921 -1.58966,3.41367 -4.77308,6.55182 -8.35867,8.23981 -2.138,1.00651 -6.60072,1.10053 -60.01086,1.2643 l -57.7011,0.17693 z"
     id="path477" />
</svg>
