<?xml version="1.0" encoding="UTF-8" standalone="no"?>
<svg
   viewBox="0 0 512 512"
   version="1.1"
   id="svg19"
   sodipodi:docname="download-solid-acmegreen.svg"
   inkscape:version="1.1.2 (b8e25be833, 2022-02-05)"
   xmlns:inkscape="http://www.inkscape.org/namespaces/inkscape"
   xmlns:sodipodi="http://sodipodi.sourceforge.net/DTD/sodipodi-0.dtd"
   xmlns="http://www.w3.org/2000/svg"
   xmlns:svg="http://www.w3.org/2000/svg">
  <defs
     id="defs23" />
  <sodipodi:namedview
     id="namedview21"
     pagecolor="#505050"
     bordercolor="#ffffff"
     borderopacity="1"
     inkscape:pageshadow="0"
     inkscape:pageopacity="0"
     inkscape:pagecheckerboard="1"
     showgrid="false"
     inkscape:zoom="1.5625"
     inkscape:cx="129.6"
     inkscape:cy="256"
     inkscape:window-width="1920"
     inkscape:window-height="1009"
     inkscape:window-x="-8"
     inkscape:window-y="-8"
     inkscape:window-maximized="1"
     inkscape:current-layer="svg19" />
  <!--! Font Awesome Pro 6.1.1 by @fontawesome - https://fontawesome.com License - https://fontawesome.com/license (Commercial License) Copyright 2022 Fonticons, Inc. -->
  <path
     d="M480 352h-133.5l-45.25 45.25C289.2 409.3 273.1 416 256 416s-33.16-6.656-45.25-18.75L165.5 352H32c-17.67 0-32 14.33-32 32v96c0 17.67 14.33 32 32 32h448c17.67 0 32-14.33 32-32v-96C512 366.3 497.7 352 480 352zM432 456c-13.2 0-24-10.8-24-24c0-13.2 10.8-24 24-24s24 10.8 24 24C456 445.2 445.2 456 432 456zM233.4 374.6C239.6 380.9 247.8 384 256 384s16.38-3.125 22.62-9.375l128-128c12.49-12.5 12.49-32.75 0-45.25c-12.5-12.5-32.76-12.5-45.25 0L288 274.8V32c0-17.67-14.33-32-32-32C238.3 0 224 14.33 224 32v242.8L150.6 201.4c-12.49-12.5-32.75-12.5-45.25 0c-12.49 12.5-12.49 32.75 0 45.25L233.4 374.6z"
     id="path17" />
  <path
     style="fill:#00d084;stroke-width:0.64;fill-opacity:1.0"
     d="M 28.105256,511.33896 C 15.448302,509.85902 4.5695875,500.12573 1.1302728,487.2042 c -1.17367645,-4.40951 -1.17367645,-105.99889 0,-110.4084 C 4.0735794,365.73777 12.060981,357.43586 23.68,353.35817 c 2.541483,-0.89194 10.998255,-1.03433 71.947654,-1.21143 l 69.067656,-0.20069 25.01234,24.89241 c 25.88823,25.7641 30.1151,29.37757 39.16375,33.48042 8.15421,3.6973 14.5676,5.16498 24.11845,5.51942 10.30694,0.3825 16.22277,-0.39762 24.11896,-3.18058 13.42392,-4.73116 15.75022,-6.57279 44.87003,-35.5216 l 25.33882,-25.19005 69.06118,0.18696 69.06116,0.18697 4.16,1.48979 c 10.26723,3.67692 17.22692,10.91429 21.03111,21.87021 0.86501,2.49117 1.0298,9.51075 1.22063,51.99322 0.13844,30.81838 -0.0237,51.30107 -0.43513,54.98659 -1.72147,15.41892 -13.0961,26.99329 -28.21661,28.71209 -6.53103,0.7424 -448.737459,0.7104 -455.094744,-0.033 z M 441.11786,454.43521 c 4.48609,-1.71446 9.83592,-6.43981 12.11183,-10.69802 9.26187,-17.32893 -4.19095,-37.65409 -23.71572,-35.83084 -8.56459,0.79977 -16.8438,6.99975 -19.99809,14.97579 -2.03015,5.13349 -2.03486,13.09094 -0.0107,18.2069 1.58651,4.01003 5.92514,9.25889 9.45803,11.44234 6.38063,3.94345 14.90179,4.6757 22.15473,1.90383 z"
     id="path996" />
  <path
     style="fill:#00d084;fill-opacity:1;stroke-width:0.64"
     d="m 247.36,382.49462 c -7.95279,-2.62921 -6.49836,-1.27508 -76.98279,-71.67378 C 133.31667,273.80538 102.16308,242.224 101.147,240.64 98.100118,235.89012 96.548571,230.27565 96.548571,224 c 0,-12.541 6.808489,-23.0927 18.504239,-28.67763 4.88635,-2.33331 5.04558,-2.36237 12.94719,-2.36237 7.74998,0 8.15001,0.0685 12.8,2.19329 4.68084,2.13884 5.77272,3.16289 43.98438,41.25235 l 39.18438,39.05907 0.17687,-124.45236 C 224.30497,38.888009 224.42385,26.274713 225.3457,23.68 227.58799,17.368659 229.51893,14.248517 233.88372,9.8837242 240.54803,3.2194172 246.71948,0.64 256,0.64 c 9.28052,0 15.45197,2.5794172 22.11628,9.2437242 4.36479,4.3647928 6.29573,7.4849348 8.53802,13.7962758 0.92185,2.594713 1.04073,15.208009 1.20007,127.33235 l 0.17687,124.45236 39.18438,-39.05907 c 38.21166,-38.08946 39.30354,-39.11351 43.98438,-41.25235 4.65488,-2.12698 5.04333,-2.19329 12.84825,-2.19329 h 8.04825 l 5.42308,2.68724 c 6.96329,3.45045 11.78754,8.34662 15.13831,15.364 2.35637,4.93485 2.38211,5.07521 2.38211,12.98876 0,7.746 -0.0695,8.1524 -2.18979,12.8 -2.1649,4.74544 -2.96145,5.57327 -70.08,72.83245 -67.88556,68.02781 -67.89058,68.03264 -73.27977,70.71892 -5.25398,2.61888 -5.56791,2.69027 -12.48,2.83803 -4.55532,0.0974 -8.00574,-0.15104 -9.65044,-0.69478 z"
     id="path2240" />
</svg>
