<?xml version="1.0" encoding="UTF-8" standalone="no"?>
<svg
   viewBox="0 0 448 512"
   version="1.1"
   id="svg575"
   sodipodi:docname="floppy-disk-solid-white.svg"
   inkscape:version="1.1.2 (b8e25be833, 2022-02-05)"
   xmlns:inkscape="http://www.inkscape.org/namespaces/inkscape"
   xmlns:sodipodi="http://sodipodi.sourceforge.net/DTD/sodipodi-0.dtd"
   xmlns="http://www.w3.org/2000/svg"
   xmlns:svg="http://www.w3.org/2000/svg">
  <defs
     id="defs579" />
  <sodipodi:namedview
     id="namedview577"
     pagecolor="#505050"
     bordercolor="#ffffff"
     borderopacity="1"
     inkscape:pageshadow="0"
     inkscape:pageopacity="0"
     inkscape:pagecheckerboard="1"
     showgrid="false"
     inkscape:zoom="1.6074219"
     inkscape:cx="224.27217"
     inkscape:cy="256.31106"
     inkscape:window-width="1920"
     inkscape:window-height="1009"
     inkscape:window-x="-8"
     inkscape:window-y="-8"
     inkscape:window-maximized="1"
     inkscape:current-layer="svg575" />
  <!--! Font Awesome Pro 6.1.1 by @fontawesome - https://fontawesome.com License - https://fontawesome.com/license (Commercial License) Copyright 2022 Fonticons, Inc. -->
  <path
     d="M433.1 129.1l-83.9-83.9C342.3 38.32 327.1 32 316.1 32H64C28.65 32 0 60.65 0 96v320c0 35.35 28.65 64 64 64h320c35.35 0 64-28.65 64-64V163.9C448 152.9 441.7 137.7 433.1 129.1zM224 416c-35.34 0-64-28.66-64-64s28.66-64 64-64s64 28.66 64 64S259.3 416 224 416zM320 208C320 216.8 312.8 224 304 224h-224C71.16 224 64 216.8 64 208v-96C64 103.2 71.16 96 80 96h224C312.8 96 320 103.2 320 112V208z"
     id="path573" />
  <path
     style="fill:#ffffff;stroke-width:0.622114"
     d="M 53.470471,478.74099 C 39.35077,476.17602 28.199308,470.21559 18.318569,459.95235 10.041908,451.3553 4.9600098,442.22967 2.0137983,430.6737 L 0.62211422,425.21507 V 256 86.784933 L 2.0286053,81.263959 C 5.1105408,69.166276 11.01623,59.014851 20.008765,50.357451 28.669347,42.019632 37.63865,37.019786 49.236415,34.064795 l 5.509636,-1.403799 H 189.12272 323.49939 l 5.28797,1.77532 c 2.90839,0.976426 7.80754,3.050241 10.887,4.608477 l 5.59903,2.833159 44.67994,44.538545 c 48.46119,48.307813 49.80469,49.814893 53.91926,60.484343 4.01124,10.40148 3.77417,0.72923 3.59284,146.58865 l -0.16531,132.96981 -1.36244,4.77499 c -4.39575,15.40594 -13.16449,28.11875 -25.30345,36.68463 -7.96005,5.61701 -15.10612,8.65135 -24.83612,10.54584 -5.898,1.14837 -11.25737,1.18355 -172.01458,1.12915 C 91.809619,479.54925 56.9591,479.37473 53.470471,478.74099 Z m 181.451679,-63.4597 c 25.04645,-4.38642 45.07217,-22.88396 51.28359,-47.3701 9.11984,-35.95149 -13.71572,-71.96399 -50.11339,-79.03061 -9.86513,-1.91531 -23.50994,-0.9266 -33.28312,2.41173 -12.2632,4.18887 -25.11852,14.12599 -32.25579,24.93363 -21.38562,32.38321 -9.79277,75.9968 24.79042,93.26438 12.02552,6.00441 26.37282,8.10366 39.57829,5.79097 z m 75.51284,-192.44222 c 4.075,-1.87745 6.35854,-4.08781 8.1601,-7.89861 l 1.47052,-3.11057 0.006,-51.97992 0.006,-51.97991 -1.61142,-3.2337 c -0.88628,-1.77853 -2.62711,-4.07091 -3.8685,-5.094179 -4.86275,-4.008294 3.61501,-3.762385 -123.6285,-3.585953 -109.890952,0.152374 -115.806089,0.216471 -117.93785,1.27796 -3.250728,1.618666 -6.13289,4.654752 -7.797729,8.214172 l -1.454902,3.11057 -0.0062,51.09068 c -0.0066,55.52761 -0.10612,53.83957 3.448834,58.50036 1.958036,2.56711 6.161537,5.06708 9.700795,5.76939 1.489509,0.29557 53.939312,0.49587 116.555102,0.44511 l 113.84691,-0.0923 3.11057,-1.4331 z"
     id="path655" />
</svg>
