<?xml version="1.0" encoding="UTF-8" standalone="no"?>
<svg
   viewBox="0 0 640 512"
   version="1.1"
   id="svg27"
   sodipodi:docname="user-plus-solid-white.svg"
   inkscape:version="1.1.2 (b8e25be833, 2022-02-05)"
   xmlns:inkscape="http://www.inkscape.org/namespaces/inkscape"
   xmlns:sodipodi="http://sodipodi.sourceforge.net/DTD/sodipodi-0.dtd"
   xmlns="http://www.w3.org/2000/svg"
   xmlns:svg="http://www.w3.org/2000/svg">
  <defs
     id="defs31" />
  <sodipodi:namedview
     id="namedview29"
     pagecolor="#505050"
     bordercolor="#ffffff"
     borderopacity="1"
     inkscape:pageshadow="0"
     inkscape:pageopacity="0"
     inkscape:pagecheckerboard="1"
     showgrid="false"
     inkscape:zoom="1.5625"
     inkscape:cx="319.68"
     inkscape:cy="256"
     inkscape:window-width="1920"
     inkscape:window-height="1009"
     inkscape:window-x="-8"
     inkscape:window-y="-8"
     inkscape:window-maximized="1"
     inkscape:current-layer="svg27" />
  <!--! Font Awesome Pro 6.1.1 by @fontawesome - https://fontawesome.com License - https://fontawesome.com/license (Commercial License) Copyright 2022 Fonticons, Inc. -->
  <path
     d="M224 256c70.7 0 128-57.31 128-128S294.7 0 224 0C153.3 0 96 57.31 96 128S153.3 256 224 256zM274.7 304H173.3C77.61 304 0 381.6 0 477.3C0 496.5 15.52 512 34.66 512h378.7C432.5 512 448 496.5 448 477.3C448 381.6 370.4 304 274.7 304zM616 200h-48v-48C568 138.8 557.3 128 544 128s-24 10.75-24 24v48h-48C458.8 200 448 210.8 448 224s10.75 24 24 24h48v48C520 309.3 530.8 320 544 320s24-10.75 24-24v-48h48C629.3 248 640 237.3 640 224S629.3 200 616 200z"
     id="path25" />
  <path
     style="fill:#ffffff;stroke-width:0.64"
     d="M 30.72,511.38607 C 16.503309,509.72347 4.5831534,498.92426 1.1977228,484.64001 0.38266976,481.20103 0.25221434,478.2969 0.55805293,470.4 3.2452222,401.01601 47.298634,340.10791 112.73865,315.29949 c 16.10044,-6.1037 33.25443,-9.60955 52.15107,-10.65839 14.41752,-0.80023 103.80304,-0.80023 118.22056,0 25.66436,1.42447 47.01128,7.07694 69.40868,18.37878 56.27971,28.39904 92.42407,84.523 94.91419,147.38012 0.31364,7.91712 0.18627,10.79222 -0.63087,14.24001 -2.8094,11.85379 -11.76099,21.65223 -23.39612,25.60944 L 419.2,511.68 226.88,511.7576 C 121.104,511.8003 32.832,511.63309 30.72,511.3861 Z"
     id="path187" />
  <path
     style="fill:#ffffff;stroke-width:0.64"
     d="M 215.68,255.27708 C 170.25653,252.89396 127.94246,223.91398 108.2295,181.68657 79.256696,119.62352 105.1752,45.10074 166.49473,14.158132 185.04634,4.7967534 202.92637,0.57263155 224,0.57263155 c 25.79656,0 49.10157,6.96748685 70.33465,21.02791645 48.05819,31.823867 68.90592,91.808352 50.84818,146.303752 -10.62712,32.07099 -33.64652,58.84091 -63.45342,73.79181 -21.37538,10.72172 -41.53573,14.86706 -66.04941,13.58097 z"
     id="path226" />
  <path
     style="fill:#ffffff;stroke-width:0.64"
     d="M 540.70842,319.29336 C 530.34339,317.98062 522.18176,309.62665 520.6035,298.71465 520.28573,296.51759 520.01995,284.136 520.01287,271.2 L 520,247.68 h -25.62019 c -24.30206,0 -25.82465,-0.0689 -29.59436,-1.3388 -7.50749,-2.52909 -12.60121,-7.63 -15.1375,-15.15887 -4.10831,-12.19533 2.61765,-25.31878 15.13186,-29.52474 3.77294,-1.26806 5.30897,-1.33759 29.55034,-1.33759 h 25.57053 l 0.22907,-26.4 c 0.2198,-25.33184 0.28531,-26.53925 1.61919,-29.84163 4.01139,-9.9313 12.01427,-15.50948 22.25106,-15.50948 10.23679,0 18.23967,5.57818 22.25106,15.50948 1.33388,3.30238 1.39939,4.50979 1.61919,29.84163 l 0.22907,26.4 h 25.48292 c 23.72308,0 25.76383,0.0886 29.55034,1.28294 7.572,2.38837 12.97946,7.84722 15.36457,15.5106 3.87962,12.46523 -3.0281,25.46747 -15.61069,29.38361 -3.429,1.06723 -6.29735,1.18285 -29.34348,1.18285 H 568 l -0.0129,23.52 c -0.007,12.936 -0.27287,25.31759 -0.59063,27.51465 -1.93313,13.36557 -13.46036,22.25401 -26.68809,20.57871 z"
     id="path265" />
</svg>
